<?xml version="1.0" encoding="iso-8859-1"?>
<!-- Uploaded to: SVG Repo, www.svgrepo.com, Generator: SVG Repo Mixer Tools -->
<!DOCTYPE svg PUBLIC "-//W3C//DTD SVG 1.1//EN" "http://www.w3.org/Graphics/SVG/1.1/DTD/svg11.dtd">
<svg fill="#000000" height="800px" width="800px" version="1.1" id="Capa_1" xmlns="http://www.w3.org/2000/svg" xmlns:xlink="http://www.w3.org/1999/xlink" 
	 viewBox="0 0 412.035 412.035" xml:space="preserve">
<g>
	<path d="M349.615,247.399l-1.693-13.898c-0.611-5.011-4.879-8.79-9.928-8.79c-0.401,0-0.808,0.024-1.209,0.073l-3.683,0.449
		c-1.54-1.836-3.793-2.946-6.363-2.946c-1.304,0-2.6,0.288-3.854,0.856l-79.456,36.008c-0.024,0.011-0.082,0.024-0.163,0.024
		c-0.323,0-0.604-0.182-0.662-0.279l-21.359-35.003c-0.6-0.983-1.385-1.892-2.296-2.698l-4.781-46.864
		c-0.3-2.94,0.542-8.066,1.767-10.755l13.167-28.917l41.252-21.402c5.296-2.748,12.916-8.031,17.349-12.027l49.215-44.381
		c6.128-5.526,6.652-15.039,1.172-21.205l-0.362-0.408c-2.845-3.2-6.947-5.034-11.257-5.034c-3.668,0-7.196,1.328-9.934,3.739
		l-51.022,44.935c-3.582,3.155-10.71,7.208-15.252,8.675L224.703,95.8l-43.373,3.143c-0.545,0.04-1.094,0.125-1.643,0.232
		l-18.075-15.558c-3.618-3.114-8.614-9.616-10.691-13.913L121.334,8.491C118.842,3.333,113.51,0,107.751,0
		c-2.249,0-4.419,0.492-6.451,1.462l-0.489,0.234c-7.445,3.557-10.653,12.528-7.15,19.999l28.137,60
		c2.534,5.403,7.507,13.229,11.322,17.817l25.342,30.475c-4.985,13.108-10.493,29.761-11.885,42.432
		c-1.293,11.766-1.242,45.988-1.216,53.287c-0.114,0.327-0.238,0.781-0.303,1.331L66.67,372.029
		c-2.001,3.698-1.413,8.2,1.131,11.316c-0.458,0.518-0.88,1.072-1.227,1.688l-2.944,5.228c-2.706,4.804-0.999,10.914,3.805,13.621
		l12.199,6.871c1.49,0.84,3.182,1.283,4.893,1.283c3.615,0,6.959-1.95,8.728-5.089l2.944-5.228c0.147-0.262,0.276-0.529,0.398-0.798
		c1.32,0.623,2.756,0.966,4.217,0.966c3.574,0,6.884-1.935,8.638-5.049l73.605-130.684l44.036,40.785
		c2.205,2.042,5.36,3.213,8.657,3.213c1.806,0,3.554-0.371,5.057-1.074l90.931-42.543c3.073-1.437,5.391-4.37,6.33-7.652
		l2.831-0.345c2.646-0.322,5.012-1.66,6.66-3.767C349.208,252.663,349.938,250.045,349.615,247.399z M100.782,391.851
		l-25.248-14.825c-0.049-0.029-0.095-0.189-0.067-0.24l75.754-140.118l24.293,22.5L100.782,391.851z M236.568,300.019
		c-0.13,0.061-0.423,0.132-0.818,0.132c-0.875,0-1.615-0.321-1.862-0.55L159.494,230.7l50.263-3.165c1.027,0,2.534,0.885,2.952,1.57
		l21.358,35.002c1.909,3.127,5.434,5.07,9.199,5.07c1.506,0,2.95-0.308,4.291-0.916l73.533-33.777
		c-0.068,0.707,6.141,20.276,6.634,22.836c-0.075,0.065-0.15,0.121-0.225,0.155L236.568,300.019z"/>
	<path d="M178.165,78.804c7.656,7.129,17.632,11.055,28.089,11.055c11.412,0,22.414-4.787,30.186-13.134
		c7.505-8.06,11.421-18.561,11.028-29.568c-0.393-11.007-5.048-21.202-13.108-28.707c-7.656-7.129-17.632-11.055-28.089-11.055
		c-11.411,0-22.414,4.787-30.185,13.134C160.592,37.169,161.525,63.311,178.165,78.804z"/>
</g>
</svg>